<?xml version="1.0" standalone="no"?>
<!DOCTYPE svg PUBLIC "-//W3C//DTD SVG 20010904//EN"
 "http://www.w3.org/TR/2001/REC-SVG-20010904/DTD/svg10.dtd">
<svg version="1.0" xmlns="http://www.w3.org/2000/svg"
 width="1024.000000pt" height="1024.000000pt" viewBox="0 0 1024.000000 1024.000000"
 preserveAspectRatio="xMidYMid meet">

<g transform="translate(0.000000,1024.000000) scale(0.100000,-0.100000)"
fill="#000000" stroke="none">
<path d="M0 5120 l0 -5120 5120 0 5120 0 0 5120 0 5120 -5120 0 -5120 0 0
-5120z m2620 1663 c25 -17 219 -194 490 -446 l145 -136 3 77 c2 56 -1 78 -10
81 -7 2 -25 17 -40 32 -39 38 -38 82 3 120 l31 29 160 0 160 0 29 -29 c41 -41
40 -90 -2 -125 -17 -14 -35 -26 -40 -26 -5 0 -9 -85 -9 -203 l0 -202 83 -81
c45 -44 131 -125 190 -179 60 -54 115 -111 123 -126 14 -28 10 -83 -9 -106
-14 -18 -128 -17 -153 2 -10 8 -22 15 -26 15 -4 0 -9 -317 -10 -704 -3 -696
-3 -705 -24 -733 -12 -16 -41 -35 -70 -45 -45 -16 -135 -17 -1085 -18 -1159 0
-1113 -3 -1166 67 l-28 36 -3 699 -3 698 -29 -15 c-80 -41 -165 -3 -163 73 1
44 29 71 498 502 165 151 407 376 539 500 131 124 250 233 265 242 34 23 118
24 151 1z m3456 -733 l27 -11 -6 -142 -6 -143 60 29 c48 24 71 30 127 29 115
0 181 -41 223 -136 22 -48 24 -67 27 -288 l4 -238 -96 0 -96 0 0 210 c0 234
-7 267 -59 294 -61 32 -152 9 -181 -45 -8 -15 -11 -88 -9 -243 l4 -221 -88 -3
-87 -3 0 461 0 460 64 0 c36 0 77 -5 92 -10z m-1507 -253 c52 -133 101 -257
108 -276 l15 -34 107 274 108 274 122 3 121 3 0 -451 0 -450 -80 0 -80 0 0
343 0 342 -56 -145 c-30 -80 -70 -185 -89 -235 -18 -49 -42 -111 -54 -137
l-20 -48 -85 0 -84 0 -82 208 c-45 114 -93 239 -108 277 -14 39 -28 73 -31 77
-3 4 -5 -148 -3 -337 l3 -345 -86 0 -85 0 0 450 0 450 133 0 132 0 94 -243z
m813 4 c17 -6 34 -36 67 -117 25 -60 61 -146 81 -192 l37 -83 23 73 c13 40 43
128 67 196 l45 122 85 0 c77 0 84 -2 78 -17 -10 -24 -51 -149 -152 -463 -47
-146 -92 -278 -100 -293 -36 -71 -144 -157 -179 -143 -8 3 -24 25 -36 50 l-21
44 44 50 c24 27 53 65 63 84 l19 36 -146 302 c-110 225 -144 306 -136 316 5 7
29 22 52 33 41 21 59 21 109 2z m2370 8 c41 -9 63 -21 95 -53 l42 -42 20 27
c11 15 39 36 63 47 127 61 270 22 331 -92 21 -39 22 -55 25 -298 l3 -258 -80
0 c-69 0 -82 3 -91 19 -6 12 -10 104 -10 228 0 231 -4 248 -60 275 -43 21 -99
10 -136 -27 -24 -24 -24 -25 -24 -260 l0 -235 -95 0 -95 0 0 236 0 236 -29 29
c-45 45 -110 39 -168 -14 -23 -20 -23 -24 -23 -259 l0 -238 -85 0 -85 0 0 335
0 335 69 0 c66 0 69 -1 83 -30 13 -27 16 -29 28 -15 24 29 99 61 152 64 9 1
41 -4 70 -10z m-708 -14 c146 -38 226 -158 226 -340 0 -111 -20 -167 -85 -231
-68 -68 -128 -89 -255 -89 -115 1 -167 21 -234 90 -65 67 -90 136 -90 255 0
84 3 101 28 150 34 68 58 94 116 128 82 48 195 63 294 37z m1852 -31 c73 -45
104 -108 111 -229 l6 -94 -27 -11 c-15 -5 -109 -10 -212 -10 -208 0 -202 3
-163 -76 42 -88 146 -106 254 -45 l52 30 42 -43 43 -43 -39 -32 c-91 -76 -227
-110 -328 -82 -92 25 -169 98 -202 193 -24 69 -28 194 -9 262 45 155 145 219
332 213 82 -3 97 -6 140 -33z m-4230 -861 c90 -48 142 -148 130 -251 -14 -115
-84 -204 -265 -340 -65 -48 -126 -92 -137 -99 -15 -9 17 -12 158 -12 l178 -1
20 -40 c11 -21 20 -57 20 -80 l0 -40 -259 0 -259 0 -21 49 c-34 80 -29 113 26
172 26 28 85 80 131 116 67 53 86 63 94 52 8 -11 9 -11 5 2 -4 11 15 37 54 75
57 57 82 67 37 15 l-23 -26 28 25 c15 13 26 29 23 36 -2 6 2 29 9 51 24 70 -7
143 -77 179 -61 32 -142 8 -222 -66 l-42 -39 -22 68 c-12 37 -22 72 -22 78 0
14 84 68 136 88 61 23 246 16 300 -12z m697 -11 l27 -26 0 -248 0 -248 45 0
45 0 0 -49 c0 -54 -10 -68 -58 -77 l-32 -6 0 -68 0 -67 -67 2 c-38 2 -74 3
-80 4 -9 1 -13 21 -13 66 l0 65 -190 0 -190 0 0 64 c0 35 -2 71 -5 78 -3 8 40
78 95 157 112 161 154 230 187 311 17 42 27 55 45 57 13 2 46 6 73 11 63 10
83 6 118 -26z m642 -227 c53 -26 89 -69 105 -126 6 -19 10 -139 10 -266 l0
-233 -41 0 c-55 0 -106 25 -113 57 l-7 25 -39 -36 c-55 -49 -103 -62 -186 -48
-111 18 -173 88 -174 195 0 123 88 193 259 204 58 4 95 2 109 -6 21 -11 22
-10 22 23 0 132 -135 158 -283 54 l-27 -20 -16 38 c-9 21 -18 52 -21 69 -5 30
-2 33 43 52 134 56 268 62 359 18z m691 11 c62 -29 117 -91 145 -165 32 -84
32 -236 0 -308 -26 -59 -94 -127 -148 -149 -58 -25 -163 -29 -218 -10 -27 9
-56 23 -65 31 -15 13 -16 2 -12 -140 l4 -155 -86 0 -86 0 0 449 0 449 43 3
c68 6 99 0 104 -22 7 -23 8 -23 41 0 69 48 195 56 278 17z m719 0 c63 -30 97
-65 132 -141 26 -55 28 -70 28 -175 0 -131 -14 -174 -82 -244 -59 -61 -112
-81 -213 -81 -72 0 -92 4 -130 26 l-45 25 3 -153 3 -153 -83 0 -83 0 1 453 2
452 56 3 c47 3 59 -1 78 -20 l23 -23 54 28 c73 37 181 38 256 3z"/>
<path d="M2394 6403 c-226 -208 -338 -309 -587 -528 l-226 -200 0 -742 -1
-743 975 0 975 0 0 740 0 739 -357 319 c-197 175 -414 371 -483 435 -69 64
-130 117 -136 117 -6 0 -78 -62 -160 -137z m115 -883 l2 -260 -246 0 -245 0 0
260 0 260 244 0 244 0 1 -260z m581 0 l0 -260 -240 0 -240 0 0 260 0 260 240
0 240 0 0 -260z m-581 -655 l1 -285 -245 0 -245 0 0 285 0 285 244 0 244 0 1
-285z m581 0 l0 -285 -240 0 -240 0 0 285 0 285 240 0 240 0 0 -285z"/>
<path d="M3072 5620 c0 -14 2 -19 5 -12 2 6 2 18 0 25 -3 6 -5 1 -5 -13z"/>
<path d="M3072 5370 c0 -14 2 -19 5 -12 2 6 2 18 0 25 -3 6 -5 1 -5 -13z"/>
<path d="M2048 5133 c6 -2 18 -2 25 0 6 3 1 5 -13 5 -14 0 -19 -2 -12 -5z"/>
<path d="M2108 5133 c12 -2 30 -2 40 0 9 3 -1 5 -23 4 -22 0 -30 -2 -17 -4z"/>
<path d="M2193 5133 c9 -2 25 -2 35 0 9 3 1 5 -18 5 -19 0 -27 -2 -17 -5z"/>
<path d="M2338 5133 c7 -3 16 -2 19 1 4 3 -2 6 -13 5 -11 0 -14 -3 -6 -6z"/>
<path d="M2438 5133 c7 -3 16 -2 19 1 4 3 -2 6 -13 5 -11 0 -14 -3 -6 -6z"/>
<path d="M2663 5133 c9 -2 23 -2 30 0 6 3 -1 5 -18 5 -16 0 -22 -2 -12 -5z"/>
<path d="M3073 5040 c0 -47 2 -66 4 -42 2 23 2 61 0 85 -2 23 -4 4 -4 -43z"/>
<path d="M3073 4915 c0 -22 2 -30 4 -17 2 12 2 30 0 40 -3 9 -5 -1 -4 -23z"/>
<path d="M3073 4825 c0 -22 2 -30 4 -17 2 12 2 30 0 40 -3 9 -5 -1 -4 -23z"/>
<path d="M3071 4764 c0 -11 3 -14 6 -6 3 7 2 16 -1 19 -3 4 -6 -2 -5 -13z"/>
<path d="M3073 4665 c0 -44 2 -61 4 -37 2 23 2 59 0 80 -2 20 -4 1 -4 -43z"/>
<path d="M6872 5661 c-34 -16 -47 -30 -64 -68 -45 -100 -18 -244 54 -297 39
-28 117 -28 155 0 50 38 68 80 67 165 -1 164 -96 253 -212 200z"/>
<path d="M8651 5664 c-24 -17 -60 -86 -61 -117 0 -16 11 -17 123 -15 l122 3
-1 49 c0 40 -5 53 -28 72 -33 29 -118 33 -155 8z"/>
<path d="M4431 4916 c9 -8 106 -13 124 -5 13 5 -6 8 -54 8 -41 1 -72 -1 -70
-3z"/>
<path d="M4372 4901 c-11 -7 -11 -9 0 -14 9 -3 15 1 15 9 0 8 -1 14 -1 14 -1
0 -7 -4 -14 -9z"/>
<path d="M4600 4895 c0 -8 4 -15 8 -15 5 0 9 7 9 15 0 8 -4 15 -9 15 -4 0 -8
-7 -8 -15z"/>
<path d="M4640 4891 c0 -6 6 -11 14 -11 8 0 28 -12 45 -26 17 -14 29 -19 26
-12 -7 19 -85 63 -85 49z"/>
<path d="M4310 4870 c-8 -5 -12 -12 -9 -15 4 -3 12 1 19 10 14 17 11 19 -10 5z"/>
<path d="M4254 4807 c-2 -7 2 -30 9 -52 12 -34 14 -36 19 -17 4 12 2 20 -3 16
-8 -5 -13 18 -12 54 1 16 -6 16 -13 -1z"/>
<path d="M4431 4816 c2 -2 33 -6 69 -9 38 -3 57 -1 45 3 -19 8 -123 14 -114 6z"/>
<path d="M4720 4811 c0 -6 4 -13 10 -16 6 -3 7 1 4 9 -7 18 -14 21 -14 7z"/>
<path d="M4390 4800 c-8 -5 -10 -10 -5 -10 6 0 17 5 25 10 8 5 11 10 5 10 -5
0 -17 -5 -25 -10z"/>
<path d="M4576 4791 c-3 -5 2 -15 12 -22 15 -12 16 -12 5 2 -7 9 -10 19 -6 22
3 4 4 7 0 7 -3 0 -8 -4 -11 -9z"/>
<path d="M4299 4733 c-13 -16 -12 -17 4 -4 9 7 17 15 17 17 0 8 -8 3 -21 -13z"/>
<path d="M4765 4676 c0 -41 3 -72 8 -69 4 2 7 35 7 74 0 38 -3 69 -7 69 -5 0
-8 -33 -8 -74z"/>
<path d="M4620 4735 c0 -5 5 -17 10 -25 5 -8 10 -10 10 -5 0 6 -5 17 -10 25
-5 8 -10 11 -10 5z"/>
<path d="M4642 4650 c0 -14 2 -19 5 -12 2 6 2 18 0 25 -3 6 -5 1 -5 -13z"/>
<path d="M4620 4580 c0 -5 5 -10 11 -10 5 0 7 5 4 10 -3 6 -8 10 -11 10 -2 0
-4 -4 -4 -10z"/>
<path d="M4700 4490 c-6 -11 -8 -20 -6 -20 3 0 10 9 16 20 6 11 8 20 6 20 -3
0 -10 -9 -16 -20z"/>
<path d="M4659 4443 c-13 -16 -12 -17 4 -4 16 13 21 21 13 21 -2 0 -10 -8 -17
-17z"/>
<path d="M4415 4380 c-3 -5 -1 -10 4 -10 6 0 11 5 11 10 0 6 -2 10 -4 10 -3 0
-8 -4 -11 -10z"/>
<path d="M4329 4313 c-13 -16 -12 -17 4 -4 16 13 21 21 13 21 -2 0 -10 -8 -17
-17z"/>
<path d="M4239 4223 c-13 -16 -12 -17 4 -4 16 13 21 21 13 21 -2 0 -10 -8 -17
-17z"/>
<path d="M4225 4161 c6 -49 30 -101 47 -101 6 0 3 9 -7 20 -10 11 -24 43 -31
72 -13 51 -14 51 -9 9z"/>
<path d="M4493 4183 c32 -2 81 -2 110 0 29 2 3 3 -58 3 -60 0 -84 -1 -52 -3z"/>
<path d="M4710 4180 c0 -5 5 -10 11 -10 5 0 7 5 4 10 -3 6 -8 10 -11 10 -2 0
-4 -4 -4 -10z"/>
<path d="M4741 4124 c0 -11 3 -14 6 -6 3 7 2 16 -1 19 -3 4 -6 -2 -5 -13z"/>
<path d="M5211 4899 c-40 -8 -80 -29 -55 -29 5 0 4 -4 -2 -8 -6 -4 -14 -17
-18 -29 -6 -18 -4 -22 8 -17 8 3 12 12 10 19 -3 7 0 16 5 20 6 3 9 11 6 16 -6
8 2 10 57 14 9 0 20 4 24 8 11 11 36 8 29 -3 -3 -5 1 -10 10 -10 10 0 13 5 9
11 -5 8 1 10 19 7 15 -3 24 -1 21 3 -6 11 -64 10 -123 -2z"/>
<path d="M5366 4628 c1 -137 5 -252 8 -255 9 -9 7 480 -2 494 -4 6 -6 -101 -6
-239z"/>
<path d="M5161 4650 c-61 -87 -80 -107 -67 -74 3 9 2 12 -5 9 -6 -4 -8 -13 -5
-21 3 -7 -17 -51 -44 -98 -28 -46 -50 -88 -50 -93 0 -4 54 -7 120 -5 l120 3 0
185 c0 101 -1 184 -3 184 -1 0 -31 -40 -66 -90z"/>
<path d="M5176 4718 c3 -5 10 -6 15 -3 13 9 11 12 -6 12 -8 0 -12 -4 -9 -9z"/>
<path d="M5066 4702 c-3 -6 -1 -14 5 -17 14 -9 20 -2 10 14 -6 8 -11 9 -15 3z"/>
<path d="M5156 4688 c3 -5 10 -6 15 -3 13 9 11 12 -6 12 -8 0 -12 -4 -9 -9z"/>
<path d="M5044 4669 c-3 -6 -2 -15 3 -20 5 -5 9 -1 9 11 0 23 -2 24 -12 9z"/>
<path d="M4990 4570 c8 -5 20 -10 25 -10 6 0 3 5 -5 10 -8 5 -19 10 -25 10 -5
0 -3 -5 5 -10z"/>
<path d="M4939 4513 c-13 -16 -12 -17 4 -4 16 13 21 21 13 21 -2 0 -10 -8 -17
-17z"/>
<path d="M5026 4494 c-3 -9 -12 -14 -20 -11 -10 4 -13 -2 -12 -19 0 -13 4 -24
8 -24 9 0 41 60 35 66 -3 3 -7 -3 -11 -12z"/>
<path d="M4909 4473 c-12 -16 -12 -17 2 -6 9 7 20 9 24 5 5 -4 5 -1 1 6 -9 16
-11 15 -27 -5z"/>
<path d="M4872 4418 c-7 -7 -12 -42 -12 -85 l0 -73 178 2 177 2 -171 3 -172 3
0 63 c0 34 4 70 9 80 11 20 8 22 -9 5z"/>
<path d="M5208 4343 c7 -3 16 -2 19 1 4 3 -2 6 -13 5 -11 0 -14 -3 -6 -6z"/>
<path d="M5418 4337 c12 -7 19 -17 15 -22 -4 -4 0 -5 9 -2 11 4 18 0 21 -11 3
-9 5 -2 6 16 1 31 -1 32 -36 32 -36 -1 -37 -1 -15 -13z"/>
<path d="M5425 4270 l-30 -8 33 -1 c17 0 32 4 32 9 0 6 -1 9 -2 9 -2 -1 -16
-5 -33 -9z"/>
<path d="M5363 4189 c0 -33 -5 -54 -14 -60 -11 -7 -9 -9 9 -9 20 0 22 4 22 60
0 33 -4 60 -9 60 -5 0 -9 -23 -8 -51z"/>
<path d="M5293 4123 c9 -2 23 -2 30 0 6 3 -1 5 -18 5 -16 0 -22 -2 -12 -5z"/>
<path d="M5770 4313 c-43 -16 -62 -61 -44 -108 16 -40 101 -57 154 -30 55 29
100 116 69 136 -15 9 -155 11 -179 2z"/>
<path d="M6465 4558 c-11 -6 -30 -20 -42 -31 -22 -19 -23 -28 -23 -159 0 -137
0 -139 26 -163 79 -73 228 -21 250 88 15 78 -1 175 -37 221 -40 51 -124 72
-174 44z"/>
<path d="M7174 4556 c-57 -25 -64 -46 -64 -192 l0 -132 31 -26 c38 -33 67 -40
124 -32 92 14 143 95 132 211 -14 148 -109 220 -223 171z"/>
</g>
</svg>
